<svg width="212" height="157" viewBox="0 0 212 157" fill="none" xmlns="http://www.w3.org/2000/svg">
<path id="Vector 6" d="M2.15381 123.461C2.15381 132.331 9.12454 140.587 14.4615 147.137C28.636 164.533 45.9639 150.212 60.7008 141.752C81.5163 129.802 90.6985 120.865 94.8889 96.3673C97.4418 81.4425 96.4536 64.9679 95.9145 49.8716C95.5566 39.8505 91.8266 24.6169 77.9658 29.3587C69.7267 32.1774 67.9322 52.5529 65.9145 58.9314C62.1812 70.7335 58.3632 81.4028 57.1965 93.7177C56.6748 99.2245 54.5253 106.72 56.6837 112.179C59.5982 119.551 75.6533 130.839 83.3504 125C93.9257 116.977 101.568 99.651 108.308 88.4186C108.512 88.0781 114.032 78.5529 111.385 81.0682C103.431 88.6238 99.0127 94.8985 97.1965 105.342C96.3415 110.258 93.0018 121.231 101.641 117.649C109.956 114.202 118.136 107.549 125.402 102.265C133.716 96.2182 107.726 112.88 99.6752 119.273C90.3832 126.652 101.251 115.859 103.692 113.803C117.358 102.295 132.567 92.6269 146.513 81.41C150.068 78.5505 165.382 64.5262 158.991 77.3075C155.419 84.4529 151.476 91.5854 147.624 98.5895C143.256 106.532 149.92 90.2832 150.872 88.675C157.824 76.9281 167.31 59.7739 178.222 51.4955C181.859 48.7366 174.405 59.7893 172.581 63.9741C168.955 72.2971 165.896 80.8994 162.838 89.4442C160.432 96.1658 162.787 91.5712 164.718 88.5895C167.534 84.2419 170.348 78.8878 174.12 75.2562C174.834 74.568 168.877 91.5587 170.017 90.128C177.547 80.6758 182.896 69.1979 189.675 59.1878C190.863 57.4335 198.777 43.4109 201.983 43.1194C202.446 43.0774 191.902 63.3876 191.726 62.9485C190.079 58.8309 194.407 50.09 195.658 46.3673C198.093 39.1209 200.138 31.8592 202.154 24.487C204.266 16.7608 207.334 9.45886 209.846 1.92285" stroke="black" stroke-width="3" stroke-linecap="round"/>
</svg>
