<svg width="149" height="150" viewBox="0 0 149 150" fill="none" xmlns="http://www.w3.org/2000/svg">
<path id="Vector 5" d="M147.308 81.4614C147.308 63.453 143.983 42.7916 132.778 28.3845C123.441 16.3795 107.347 9.87345 92.6069 6.07681C75.2791 1.61361 59.8863 0.0826921 41.4958 3.34177C20.2517 7.10655 19.2151 29.4536 10.3847 45.2221C0.122082 63.5482 -0.14127 87.4181 9.18809 106.077C14.8842 117.469 21.8143 129.717 28.8462 140.265C35.5784 150.363 49.7825 147.615 60.4701 147.615C72.3246 147.615 86.6643 148.259 95.7693 139.154C103.736 131.187 108.565 117.225 110.727 106.419C113.457 92.7671 114.966 75.3076 97.2223 75.3076C85.6667 75.3076 51.1368 78.3845 62.6924 78.3845" stroke="black" stroke-width="3" stroke-linecap="round"/>
</svg>
